<?xml version="1.0" encoding="UTF-8" standalone="no"?>
<!DOCTYPE svg PUBLIC "-//W3C//DTD SVG 1.1//EN"
 "http://www.w3.org/Graphics/SVG/1.1/DTD/svg11.dtd">
<!-- Generated by graphviz version 12.2.1 (20241206.2353)
 -->
<!-- Title: G Pages: 1 -->
<svg width="1239pt" height="371pt"
 viewBox="0.00 0.00 1239.00 371.00" xmlns="http://www.w3.org/2000/svg" xmlns:xlink="http://www.w3.org/1999/xlink">
<g id="graph0" class="graph" transform="scale(1 1) rotate(0) translate(4 367)">
<title>G</title><style>.edge>path:hover{stroke-width:8}</style>
<polygon fill="white" stroke="none" points="-4,4 -4,-367 1235,-367 1235,4 -4,4"/>
<!-- aio_pika -->
<g id="node1" class="node">
<title>aio_pika</title><style>.edge>path:hover{stroke-width:8}</style>
<polygon fill="blue" stroke="black" points="54,-254 51,-258 30,-258 27,-254 0,-254 0,-218 54,-218 54,-254"/>
<text text-anchor="middle" x="27" y="-232.12" font-family="Helvetica,sans-Serif" font-size="10.00" fill="white">aio_pika</text>
</g>
<!-- src -->
<g id="node21" class="node">
<title>src</title><style>.edge>path:hover{stroke-width:8}</style>
<polygon fill="#6d06ef" stroke="black" points="610,-36 607,-40 586,-40 583,-36 556,-36 556,0 610,0 610,-36"/>
<text text-anchor="middle" x="583" y="-14.12" font-family="Helvetica,sans-Serif" font-size="10.00" fill="#ffffff">src</text>
</g>
<!-- aio_pika&#45;&gt;src -->
<g id="edge1" class="edge">
<title>aio_pika&#45;&gt;src</title><style>.edge>path:hover{stroke-width:8}</style>
<path fill="none" stroke="black" d="M99,-163C119.28,-148.84 127.74,-150.84 152,-146 199.13,-136.6 600.69,-154.68 583,-110"/>
<path fill="none" stroke="black" d="M583,-109C575.3,-89.55 575.65,-65.83 577.74,-47.62"/>
<polygon fill="blue" stroke="black" points="581.2,-48.18 579.13,-37.78 574.27,-47.2 581.2,-48.18"/>
<path fill="none" stroke="black" d="M41.97,-217.54C55.68,-202.29 77.13,-180.27 99,-165"/>
</g>
<!-- black -->
<g id="node2" class="node">
<title>black</title><style>.edge>path:hover{stroke-width:8}</style>
<polygon fill="#b66953" stroke="black" points="126,-254 123,-258 102,-258 99,-254 72,-254 72,-218 126,-218 126,-254"/>
<text text-anchor="middle" x="99" y="-232.12" font-family="Helvetica,sans-Serif" font-size="10.00" fill="#ffffff">black</text>
</g>
<!-- black&#45;&gt;src -->
<g id="edge2" class="edge">
<title>black&#45;&gt;src</title><style>.edge>path:hover{stroke-width:8}</style>
<path fill="none" stroke="black" d="M92.27,-217.55C87.04,-200.69 83.06,-176.13 99,-165"/>
</g>
<!-- bs4 -->
<g id="node3" class="node">
<title>bs4</title><style>.edge>path:hover{stroke-width:8}</style>
<polygon fill="#b67f53" stroke="black" points="215,-182 212,-186 191,-186 188,-182 161,-182 161,-146 215,-146 215,-182"/>
<text text-anchor="middle" x="188" y="-160.12" font-family="Helvetica,sans-Serif" font-size="10.00" fill="#000000">bs4</text>
</g>
<!-- bs4&#45;&gt;src -->
<g id="edge3" class="edge">
<title>bs4&#45;&gt;src</title><style>.edge>path:hover{stroke-width:8}</style>
<path fill="none" stroke="black" d="M215.42,-150.35C219.88,-148.67 224.52,-147.13 229,-146 267.33,-136.33 597.53,-146.77 583,-110"/>
</g>
<!-- docx -->
<g id="node4" class="node">
<title>docx</title><style>.edge>path:hover{stroke-width:8}</style>
<polygon fill="#cc9933" stroke="black" points="198,-254 195,-258 174,-258 171,-254 144,-254 144,-218 198,-218 198,-254"/>
<text text-anchor="middle" x="171" y="-232.12" font-family="Helvetica,sans-Serif" font-size="10.00" fill="#000000">docx</text>
</g>
<!-- docx&#45;&gt;src -->
<g id="edge4" class="edge">
<title>docx&#45;&gt;src</title><style>.edge>path:hover{stroke-width:8}</style>
<path fill="none" stroke="black" d="M243,-163C252.14,-156.3 251.66,-150.63 262,-146 327.52,-116.68 609.43,-176.74 583,-110"/>
<path fill="none" stroke="black" d="M188.24,-217.75C207.59,-198.47 237.06,-169.36 243,-165"/>
</g>
<!-- dotenv -->
<g id="node5" class="node">
<title>dotenv</title><style>.edge>path:hover{stroke-width:8}</style>
<polygon fill="#b6ab53" stroke="black" points="270,-254 267,-258 246,-258 243,-254 216,-254 216,-218 270,-218 270,-254"/>
<text text-anchor="middle" x="243" y="-232.12" font-family="Helvetica,sans-Serif" font-size="10.00" fill="#000000">dotenv</text>
</g>
<!-- dotenv&#45;&gt;src -->
<g id="edge5" class="edge">
<title>dotenv&#45;&gt;src</title><style>.edge>path:hover{stroke-width:8}</style>
<path fill="none" stroke="black" d="M236.39,-217.7C231.24,-200.97 227.32,-176.5 243,-165"/>
</g>
<!-- fastapi -->
<g id="node6" class="node">
<title>fastapi</title><style>.edge>path:hover{stroke-width:8}</style>
<polygon fill="#def906" stroke="black" points="335,-363 332,-367 311,-367 308,-363 281,-363 281,-327 335,-327 335,-363"/>
<text text-anchor="middle" x="308" y="-341.12" font-family="Helvetica,sans-Serif" font-size="10.00" fill="#000000">fastapi</text>
</g>
<!-- sentry_sdk -->
<g id="node20" class="node">
<title>sentry_sdk</title><style>.edge>path:hover{stroke-width:8}</style>
<polygon fill="#3c06f9" stroke="black" points="335,-182 332,-186 311,-186 308,-182 271,-182 271,-146 335,-146 335,-182"/>
<text text-anchor="middle" x="303" y="-160.12" font-family="Helvetica,sans-Serif" font-size="10.00" fill="#ffffff">sentry_sdk</text>
</g>
<!-- fastapi&#45;&gt;sentry_sdk -->
<g id="edge6" class="edge">
<title>fastapi&#45;&gt;sentry_sdk</title><style>.edge>path:hover{stroke-width:8}</style>
<path fill="none" stroke="black" d="M325,-235C325.8,-220.64 321.61,-205.33 316.68,-192.7"/>
<polygon fill="#def906" stroke="black" points="320.01,-191.59 312.86,-183.77 313.58,-194.34 320.01,-191.59"/>
<path fill="none" stroke="black" d="M311.87,-326.7C316.32,-305.64 323.23,-268.93 325,-237"/>
</g>
<!-- fastapi&#45;&gt;src -->
<g id="edge7" class="edge">
<title>fastapi&#45;&gt;src</title><style>.edge>path:hover{stroke-width:8}</style>
<path fill="none" stroke="black" d="M363,-163C371.07,-155.05 371.81,-150.96 382,-146 422.79,-126.12 603.31,-150.58 583,-110"/>
<path fill="none" stroke="black" d="M325,-235C328.99,-199.83 337.78,-189.84 363,-165"/>
</g>
<!-- hvac -->
<g id="node7" class="node">
<title>hvac</title><style>.edge>path:hover{stroke-width:8}</style>
<polygon fill="#95c040" stroke="black" points="445,-182 442,-186 421,-186 418,-182 391,-182 391,-146 445,-146 445,-182"/>
<text text-anchor="middle" x="418" y="-160.12" font-family="Helvetica,sans-Serif" font-size="10.00" fill="#000000">hvac</text>
</g>
<!-- hvac&#45;&gt;src -->
<g id="edge8" class="edge">
<title>hvac&#45;&gt;src</title><style>.edge>path:hover{stroke-width:8}</style>
<path fill="none" stroke="black" d="M445.18,-151.24C449.76,-149.4 454.49,-147.58 459,-146 513.14,-126.98 604.09,-163.37 583,-110"/>
</g>
<!-- isort -->
<g id="node8" class="node">
<title>isort</title><style>.edge>path:hover{stroke-width:8}</style>
<polygon fill="#78c040" stroke="black" points="445,-254 442,-258 421,-258 418,-254 391,-254 391,-218 445,-218 445,-254"/>
<text text-anchor="middle" x="418" y="-232.12" font-family="Helvetica,sans-Serif" font-size="10.00" fill="#000000">isort</text>
</g>
<!-- isort&#45;&gt;src -->
<g id="edge9" class="edge">
<title>isort&#45;&gt;src</title><style>.edge>path:hover{stroke-width:8}</style>
<path fill="none" stroke="black" d="M431.39,-217.6C442.42,-203.35 458.54,-182.72 473,-165"/>
<path fill="none" stroke="black" d="M473,-163C480.16,-154.22 482.36,-151.95 492,-146 529,-123.14 599.01,-150.44 583,-110"/>
</g>
<!-- jinja2 -->
<g id="node9" class="node">
<title>jinja2</title><style>.edge>path:hover{stroke-width:8}</style>
<polygon fill="#4ee722" stroke="black" points="517,-254 514,-258 493,-258 490,-254 463,-254 463,-218 517,-218 517,-254"/>
<text text-anchor="middle" x="490" y="-232.12" font-family="Helvetica,sans-Serif" font-size="10.00" fill="#000000">jinja2</text>
</g>
<!-- jinja2&#45;&gt;src -->
<g id="edge10" class="edge">
<title>jinja2&#45;&gt;src</title><style>.edge>path:hover{stroke-width:8}</style>
<path fill="none" stroke="black" d="M478.26,-217.62C469.45,-202.22 460.82,-179.92 473,-165"/>
</g>
<!-- loguru -->
<g id="node10" class="node">
<title>loguru</title><style>.edge>path:hover{stroke-width:8}</style>
<polygon fill="#40c040" stroke="black" points="555,-182 552,-186 531,-186 528,-182 501,-182 501,-146 555,-146 555,-182"/>
<text text-anchor="middle" x="528" y="-160.12" font-family="Helvetica,sans-Serif" font-size="10.00" fill="#000000">loguru</text>
</g>
<!-- loguru&#45;&gt;src -->
<g id="edge11" class="edge">
<title>loguru&#45;&gt;src</title><style>.edge>path:hover{stroke-width:8}</style>
<path fill="none" stroke="black" d="M555.49,-151.05C572.49,-141.7 589.87,-127.39 583,-110"/>
</g>
<!-- numpy -->
<g id="node11" class="node">
<title>numpy</title><style>.edge>path:hover{stroke-width:8}</style>
<polygon fill="#06f93c" stroke="black" points="629,-254 626,-258 605,-258 602,-254 575,-254 575,-218 629,-218 629,-254"/>
<text text-anchor="middle" x="602" y="-232.12" font-family="Helvetica,sans-Serif" font-size="10.00" fill="#000000">numpy</text>
</g>
<!-- numpy&#45;&gt;src -->
<g id="edge12" class="edge">
<title>numpy&#45;&gt;src</title><style>.edge>path:hover{stroke-width:8}</style>
<path fill="none" stroke="black" d="M601.8,-217.79C600.98,-193.1 597.44,-146.54 583,-110"/>
</g>
<!-- torch -->
<g id="node24" class="node">
<title>torch</title><style>.edge>path:hover{stroke-width:8}</style>
<polygon fill="#b83daa" stroke="black" points="665,-182 662,-186 641,-186 638,-182 611,-182 611,-146 665,-146 665,-182"/>
<text text-anchor="middle" x="638" y="-160.12" font-family="Helvetica,sans-Serif" font-size="10.00" fill="#ffffff">torch</text>
</g>
<!-- numpy&#45;&gt;torch -->
<g id="edge13" class="edge">
<title>numpy&#45;&gt;torch</title><style>.edge>path:hover{stroke-width:8}</style>
<path fill="none" stroke="black" d="M610.9,-217.7C614.87,-209.98 619.63,-200.71 624.06,-192.11"/>
<polygon fill="#06f93c" stroke="black" points="627.05,-193.94 628.51,-183.45 620.83,-190.74 627.05,-193.94"/>
</g>
<!-- openai -->
<g id="node12" class="node">
<title>openai</title><style>.edge>path:hover{stroke-width:8}</style>
<polygon fill="#33cc77" stroke="black" points="720,-254 717,-258 696,-258 693,-254 666,-254 666,-218 720,-218 720,-254"/>
<text text-anchor="middle" x="693" y="-232.12" font-family="Helvetica,sans-Serif" font-size="10.00" fill="#000000">openai</text>
</g>
<!-- openai&#45;&gt;src -->
<g id="edge14" class="edge">
<title>openai&#45;&gt;src</title><style>.edge>path:hover{stroke-width:8}</style>
<path fill="none" stroke="black" d="M693.89,-217.51C693.94,-197.88 691.04,-166.14 674,-146 645.91,-112.8 599.13,-150.39 583,-110"/>
</g>
<!-- pandas -->
<g id="node13" class="node">
<title>pandas</title><style>.edge>path:hover{stroke-width:8}</style>
<polygon fill="#33cc99" stroke="black" points="775,-182 772,-186 751,-186 748,-182 721,-182 721,-146 775,-146 775,-182"/>
<text text-anchor="middle" x="748" y="-160.12" font-family="Helvetica,sans-Serif" font-size="10.00" fill="#000000">pandas</text>
</g>
<!-- pandas&#45;&gt;src -->
<g id="edge15" class="edge">
<title>pandas&#45;&gt;src</title><style>.edge>path:hover{stroke-width:8}</style>
<path fill="none" stroke="black" d="M720.82,-151.24C716.24,-149.4 711.51,-147.58 707,-146 652.86,-126.98 604.09,-163.37 583,-110"/>
</g>
<!-- prometheus_client -->
<g id="node14" class="node">
<title>prometheus_client</title><style>.edge>path:hover{stroke-width:8}</style>
<polygon fill="#40c0b1" stroke="black" points="888.75,-182 885.75,-186 864.75,-186 861.75,-182 793.25,-182 793.25,-146 888.75,-146 888.75,-182"/>
<text text-anchor="middle" x="841" y="-160.12" font-family="Helvetica,sans-Serif" font-size="10.00" fill="#000000">prometheus_client</text>
</g>
<!-- prometheus_client&#45;&gt;src -->
<g id="edge16" class="edge">
<title>prometheus_client&#45;&gt;src</title><style>.edge>path:hover{stroke-width:8}</style>
<path fill="none" stroke="black" d="M792.9,-148.24C789.9,-147.45 786.91,-146.69 784,-146 739.85,-135.5 599.68,-152.2 583,-110"/>
</g>
<!-- psutil -->
<g id="node15" class="node">
<title>psutil</title><style>.edge>path:hover{stroke-width:8}</style>
<polygon fill="#26c5d9" stroke="black" points="961,-182 958,-186 937,-186 934,-182 907,-182 907,-146 961,-146 961,-182"/>
<text text-anchor="middle" x="934" y="-160.12" font-family="Helvetica,sans-Serif" font-size="10.00" fill="#000000">psutil</text>
</g>
<!-- psutil&#45;&gt;src -->
<g id="edge17" class="edge">
<title>psutil&#45;&gt;src</title><style>.edge>path:hover{stroke-width:8}</style>
<path fill="none" stroke="black" d="M906.84,-149.05C903.91,-147.88 900.92,-146.83 898,-146 830.24,-126.7 608.9,-175.52 583,-110"/>
</g>
<!-- pydantic -->
<g id="node16" class="node">
<title>pydantic</title><style>.edge>path:hover{stroke-width:8}</style>
<polygon fill="#06a8f9" stroke="black" points="868,-363 865,-367 844,-367 841,-363 814,-363 814,-327 868,-327 868,-363"/>
<text text-anchor="middle" x="841" y="-341.12" font-family="Helvetica,sans-Serif" font-size="10.00" fill="#000000">pydantic</text>
</g>
<!-- pydantic&#45;&gt;src -->
<g id="edge18" class="edge">
<title>pydantic&#45;&gt;src</title><style>.edge>path:hover{stroke-width:8}</style>
<path fill="none" stroke="black" d="M838.96,-326.57C838.23,-316.11 838.19,-302.63 841,-291"/>
<path fill="none" stroke="black" d="M989,-163C981.35,-154.64 980.39,-150.53 970,-146 930.42,-128.73 602.33,-148.62 583,-110"/>
<path fill="none" stroke="black" d="M841,-290C848.81,-257.72 838.09,-242.04 861,-218 903.48,-173.43 1030.56,-210.43 989,-165"/>
</g>
<!-- weaviate -->
<g id="node27" class="node">
<title>weaviate</title><style>.edge>path:hover{stroke-width:8}</style>
<polygon fill="blue" stroke="black" points="924.5,-254 921.5,-258 900.5,-258 897.5,-254 869.5,-254 869.5,-218 924.5,-218 924.5,-254"/>
<text text-anchor="middle" x="897" y="-232.12" font-family="Helvetica,sans-Serif" font-size="10.00" fill="white">weaviate</text>
</g>
<!-- pydantic&#45;&gt;weaviate -->
<g id="edge19" class="edge">
<title>pydantic&#45;&gt;weaviate</title><style>.edge>path:hover{stroke-width:8}</style>
<path fill="none" stroke="black" d="M841,-290C843.84,-278.27 851.63,-268.22 860.52,-260.13"/>
<polygon fill="#06a8f9" stroke="black" points="862.57,-262.98 868.1,-253.95 858.14,-257.56 862.57,-262.98"/>
</g>
<!-- pydantic_settings -->
<g id="node17" class="node">
<title>pydantic_settings</title><style>.edge>path:hover{stroke-width:8}</style>
<polygon fill="#2f7bdb" stroke="black" points="1035.25,-254 1032.25,-258 1011.25,-258 1008.25,-254 942.75,-254 942.75,-218 1035.25,-218 1035.25,-254"/>
<text text-anchor="middle" x="989" y="-232.12" font-family="Helvetica,sans-Serif" font-size="10.00" fill="#ffffff">pydantic_settings</text>
</g>
<!-- pydantic_settings&#45;&gt;src -->
<g id="edge20" class="edge">
<title>pydantic_settings&#45;&gt;src</title><style>.edge>path:hover{stroke-width:8}</style>
<path fill="none" stroke="black" d="M994.86,-217.7C999,-201.92 1001.8,-178.99 989,-165"/>
</g>
<!-- redis -->
<g id="node18" class="node">
<title>redis</title><style>.edge>path:hover{stroke-width:8}</style>
<polygon fill="#3151c4" stroke="black" points="407,-363 404,-367 383,-367 380,-363 353,-363 353,-327 407,-327 407,-363"/>
<text text-anchor="middle" x="380" y="-341.12" font-family="Helvetica,sans-Serif" font-size="10.00" fill="#ffffff">redis</text>
</g>
<!-- redis&#45;&gt;sentry_sdk -->
<g id="edge21" class="edge">
<title>redis&#45;&gt;sentry_sdk</title><style>.edge>path:hover{stroke-width:8}</style>
<path fill="none" stroke="black" d="M363,-235C359.51,-217.53 347.71,-202.02 335.48,-190.06"/>
<polygon fill="#3151c4" stroke="black" points="337.92,-187.55 328.17,-183.4 333.2,-192.72 337.92,-187.55"/>
<path fill="none" stroke="black" d="M377.66,-326.5C374.71,-305.25 369.27,-268.36 363,-237"/>
</g>
<!-- redis&#45;&gt;src -->
<g id="edge22" class="edge">
<title>redis&#45;&gt;src</title><style>.edge>path:hover{stroke-width:8}</style>
<path fill="none" stroke="black" d="M363,-235C354.31,-205.13 340.83,-186.83 363,-165"/>
</g>
<!-- requests -->
<g id="node19" class="node">
<title>requests</title><style>.edge>path:hover{stroke-width:8}</style>
<polygon fill="#4040c0" stroke="black" points="1107,-254 1104,-258 1083,-258 1080,-254 1053,-254 1053,-218 1107,-218 1107,-254"/>
<text text-anchor="middle" x="1080" y="-232.12" font-family="Helvetica,sans-Serif" font-size="10.00" fill="#ffffff">requests</text>
</g>
<!-- requests&#45;&gt;src -->
<g id="edge23" class="edge">
<title>requests&#45;&gt;src</title><style>.edge>path:hover{stroke-width:8}</style>
<path fill="none" stroke="black" d="M1052.89,-217.87C1033.65,-204.87 1007.97,-185.74 989,-165"/>
</g>
<!-- sentry_sdk&#45;&gt;src -->
<g id="edge24" class="edge">
<title>sentry_sdk&#45;&gt;src</title><style>.edge>path:hover{stroke-width:8}</style>
<path fill="none" stroke="black" d="M335.41,-150.1C339.93,-148.57 344.55,-147.15 349,-146 399.93,-132.81 602.34,-158.93 583,-110"/>
</g>
<!-- supabase -->
<g id="node22" class="node">
<title>supabase</title><style>.edge>path:hover{stroke-width:8}</style>
<polygon fill="#ac10f9" stroke="black" points="1183,-254 1180,-258 1159,-258 1156,-254 1125,-254 1125,-218 1183,-218 1183,-254"/>
<text text-anchor="middle" x="1154" y="-232.12" font-family="Helvetica,sans-Serif" font-size="10.00" fill="#ffffff">supabase</text>
</g>
<!-- supabase&#45;&gt;src -->
<g id="edge25" class="edge">
<title>supabase&#45;&gt;src</title><style>.edge>path:hover{stroke-width:8}</style>
<path fill="none" stroke="black" d="M1124.66,-221.53C1121.75,-220.3 1118.83,-219.1 1116,-218 1059,-195.81 1030.28,-210.13 989,-165"/>
</g>
<!-- tenacity -->
<g id="node23" class="node">
<title>tenacity</title><style>.edge>path:hover{stroke-width:8}</style>
<polygon fill="blue" stroke="black" points="1071,-182 1068,-186 1047,-186 1044,-182 1017,-182 1017,-146 1071,-146 1071,-182"/>
<text text-anchor="middle" x="1044" y="-160.12" font-family="Helvetica,sans-Serif" font-size="10.00" fill="white">tenacity</text>
</g>
<!-- tenacity&#45;&gt;src -->
<g id="edge26" class="edge">
<title>tenacity&#45;&gt;src</title><style>.edge>path:hover{stroke-width:8}</style>
<path fill="none" stroke="black" d="M1016.6,-150.29C1012.13,-148.61 1007.49,-147.1 1003,-146 957.5,-134.9 600.22,-153.56 583,-110"/>
</g>
<!-- torch&#45;&gt;src -->
<g id="edge27" class="edge">
<title>torch&#45;&gt;src</title><style>.edge>path:hover{stroke-width:8}</style>
<path fill="none" stroke="black" d="M611.72,-145.62C600.48,-136.53 588.65,-124.31 583,-110"/>
</g>
<!-- transformers -->
<g id="node25" class="node">
<title>transformers</title><style>.edge>path:hover{stroke-width:8}</style>
<polygon fill="#d9269d" stroke="black" points="1159.38,-182 1156.38,-186 1135.38,-186 1132.38,-182 1088.62,-182 1088.62,-146 1159.38,-146 1159.38,-182"/>
<text text-anchor="middle" x="1124" y="-160.12" font-family="Helvetica,sans-Serif" font-size="10.00" fill="#ffffff">transformers</text>
</g>
<!-- transformers&#45;&gt;src -->
<g id="edge28" class="edge">
<title>transformers&#45;&gt;src</title><style>.edge>path:hover{stroke-width:8}</style>
<path fill="none" stroke="black" d="M1088.25,-148.19C1085.49,-147.36 1082.72,-146.61 1080,-146 1025.97,-133.89 603.35,-161.49 583,-110"/>
</g>
<!-- uvicorn -->
<g id="node26" class="node">
<title>uvicorn</title><style>.edge>path:hover{stroke-width:8}</style>
<polygon fill="#c04078" stroke="black" points="1231,-182 1228,-186 1207,-186 1204,-182 1177,-182 1177,-146 1231,-146 1231,-182"/>
<text text-anchor="middle" x="1204" y="-160.12" font-family="Helvetica,sans-Serif" font-size="10.00" fill="#ffffff">uvicorn</text>
</g>
<!-- uvicorn&#45;&gt;src -->
<g id="edge29" class="edge">
<title>uvicorn&#45;&gt;src</title><style>.edge>path:hover{stroke-width:8}</style>
<path fill="none" stroke="black" d="M1176.89,-148.89C1173.94,-147.75 1170.95,-146.76 1168,-146 1104.92,-129.81 606.94,-170.56 583,-110"/>
</g>
<!-- weaviate&#45;&gt;src -->
<g id="edge30" class="edge">
<title>weaviate&#45;&gt;src</title><style>.edge>path:hover{stroke-width:8}</style>
<path fill="none" stroke="black" d="M924.8,-221.02C955.9,-204.48 1000.55,-177.62 989,-165"/>
</g>
</g>
</svg>
